<svg xmlns="http://www.w3.org/2000/svg" width="720" height="1280" viewBox="0 0 720 1280" role="img" aria-labelledby="title desc">
  <title id="title">Matcha ASMR placeholder</title>
  <desc id="desc">A soft matcha latte placeholder illustration for the video area.</desc>
  <defs>
    <linearGradient id="bg" x1="0" x2="1" y1="0" y2="1">
      <stop offset="0" stop-color="#F4F7F2"/>
      <stop offset="0.5" stop-color="#D9E8C3"/>
      <stop offset="1" stop-color="#FFF1C5"/>
    </linearGradient>
    <radialGradient id="foam" cx="50%" cy="34%" r="42%">
      <stop offset="0" stop-color="#FFFFFF"/>
      <stop offset="1" stop-color="#EAF3DD"/>
    </radialGradient>
  </defs>
  <rect width="720" height="1280" fill="url(#bg)"/>
  <circle cx="360" cy="430" r="230" fill="#7CB342" opacity=".16"/>
  <ellipse cx="360" cy="735" rx="206" ry="76" fill="#2E5A27" opacity=".13"/>
  <path d="M224 396h272l-34 430c-5 65-53 113-112 113h-1c-59 0-107-48-112-113L224 396Z" fill="#FCFFF8" stroke="#2E5A27" stroke-width="10"/>
  <ellipse cx="360" cy="396" rx="136" ry="54" fill="#2E5A27"/>
  <ellipse cx="360" cy="386" rx="116" ry="38" fill="url(#foam)"/>
  <path d="M292 382c42-37 96-33 136 2-42 26-92 24-136-2Z" fill="#7CB342" opacity=".82"/>
  <path d="M180 1036c98-44 259-45 360 0" fill="none" stroke="#FFFFFF" stroke-width="12" stroke-linecap="round" opacity=".66"/>
  <text x="360" y="1088" fill="#2E5A27" font-family="Arial, sans-serif" font-size="30" font-weight="700" text-anchor="middle">ASMR video placeholder</text>
  <text x="360" y="1134" fill="#4B6F3D" font-family="Arial, sans-serif" font-size="22" text-anchor="middle">Replace /public/assets/asmr-matcha.mp4</text>
</svg>
